<svg xmlns="http://www.w3.org/2000/svg" xmlns:xlink="http://www.w3.org/1999/xlink" viewBox="0 0 415.47 324.63"><defs><style>.cls-1,.cls-11,.cls-20,.cls-3,.cls-4{fill:#fff;}.cls-1,.cls-16,.cls-18,.cls-19,.cls-20,.cls-6,.cls-7,.cls-9{stroke:#263238;}.cls-1,.cls-16,.cls-6,.cls-7,.cls-8,.cls-9{stroke-linecap:round;stroke-linejoin:round;}.cls-19,.cls-2,.cls-7{fill:#c6ff00;}.cls-3{opacity:0.8;}.cls-15,.cls-5{opacity:0.15;}.cls-17,.cls-18,.cls-6,.cls-8{fill:#263238;}.cls-8{stroke:#fff;}.cls-16,.cls-9{fill:none;}.cls-10{clip-path:url(#clip-path);}.cls-11{opacity:0.6;}.cls-12{clip-path:url(#clip-path-2);}.cls-13{opacity:0.2;}.cls-14{clip-path:url(#clip-path-3);}.cls-16{stroke-width:0.25px;}.cls-18,.cls-19,.cls-20{stroke-miterlimit:10;stroke-width:0.5px;}</style><clipPath id="clip-path" transform="translate(-44.53 -92.04)"><path class="cls-1" d="M380.08,219.16A11.82,11.82,0,0,0,368.25,231V376.41a12,12,0,0,1-16,11.29l-89.73-31.87a26,26,0,0,0-14.66-.82V231a11.83,11.83,0,0,1,11.83-11.83Z"/></clipPath><clipPath id="clip-path-2" transform="translate(-44.53 -92.04)"><path class="cls-1" d="M356.27,388.41H235.87a11.92,11.92,0,0,1-4-.71l-20.79-7.31,25.85-19.9a26.17,26.17,0,0,1,25.6-4.66l89.73,31.87A11.94,11.94,0,0,0,356.27,388.41Z"/></clipPath><clipPath id="clip-path-3" transform="translate(-44.53 -92.04)"><path class="cls-1" d="M388.44,222.63a11.74,11.74,0,0,0-8.36-3.47c-12.32,0-11.83,11.83-11.83,11.83v22.26h23.66V231A11.76,11.76,0,0,0,388.44,222.63Z"/></clipPath></defs><title>bg</title><g id="Background_Simple" data-name="Background Simple"><path class="cls-2" d="M456.39,312.8S476.52,206.35,421.69,146c-48.4-53.31-125-74-187.48-30C212,131.7,195.75,162.2,169.75,171.62,140.6,182.19,103.13,186,76.06,231.26S58.71,334.69,94.8,365.65s99.25.75,156.16-1.51S426.55,444.16,456.39,312.8Z" transform="translate(-44.53 -92.04)"/><path class="cls-3" d="M456.39,312.8S476.52,206.35,421.69,146c-48.4-53.31-125-74-187.48-30C212,131.7,195.75,162.2,169.75,171.62,140.6,182.19,103.13,186,76.06,231.26S58.71,334.69,94.8,365.65s99.25.75,156.16-1.51S426.55,444.16,456.39,312.8Z" transform="translate(-44.53 -92.04)"/></g><g id="Book_Shelf" data-name="Book Shelf"><path class="cls-4" d="M215.87,60h63.5a0,0,0,0,1,0,0V78.07a0,0,0,0,1,0,0h-63.5a5.13,5.13,0,0,1-5.13-5.13V65.13A5.13,5.13,0,0,1,215.87,60Z"/><path class="cls-4" d="M323.9,129.47H264.3a9,9,0,0,0-9,9h0a9,9,0,0,0,9,9h59.6Z" transform="translate(-44.53 -92.04)"/><rect class="cls-4" x="284.79" y="16.66" width="21.67" height="60.5"/><rect class="cls-4" x="311.88" y="16.66" width="21.67" height="60.5"/><rect class="cls-4" x="338.97" y="16.66" width="21.67" height="60.5"/><polygon class="cls-5" points="373.72 78.78 203.55 78.78 203.55 88.86 217.36 88.86 217.36 113.86 225.57 113.86 225.57 88.86 347.69 88.86 347.69 113.86 355.91 113.86 355.91 88.86 373.72 88.86 373.72 78.78"/></g><g id="Plants"><path class="cls-5" d="M215,200.82a54.13,54.13,0,0,0-5.69,2.21c1-.75,2-1.51,3-2.3a143.59,143.59,0,0,0,12.87-11.65,138.79,138.79,0,0,1-15.24,12.8,33.82,33.82,0,0,0,1.95-4c1-2.52,1.19-5-1.22-6.41-3-1.66-6.55.83-5.6,5.1a15.52,15.52,0,0,0,3.26,6.43,96.69,96.69,0,0,1-10.93,6.56l-.36.18a35.14,35.14,0,0,0,2.11-4.3c1-2.52,1.2-5.05-1.21-6.41-3-1.67-6.56.82-5.6,5.1a15.5,15.5,0,0,0,3.2,6.36c-4.55,2.24-9.25,4.14-13.93,6.21l-.68.31a30.74,30.74,0,0,0,2.54-3.12c1.52-2.23,2.34-4.64.31-6.52-2.49-2.31-6.57-.72-6.64,3.66a15.8,15.8,0,0,0,1.65,7,71,71,0,0,0-12.4,7.36l-.12.09a23.77,23.77,0,0,0,1.43-2.57c1.15-2.44,1.57-5-.73-6.48a3.76,3.76,0,0,0-5.66,1.75,3.35,3.35,0,0,0-1.21-1.15c-2.32-1.34-4.6.11-6.55,2.16-.51.53-1,1.1-1.45,1.68a71.78,71.78,0,0,1,5.67-12.07,17.11,17.11,0,0,0,6.81,1.46c4.62,0,6.57-3.85,4.3-6.24-1.84-1.94-4.44-1.2-6.89.21-.81.47-1.6,1-2.34,1.54a69.38,69.38,0,0,1,8-9.9,17.37,17.37,0,0,0,6.58,3.31c4.49,1.11,7.31-2.15,5.68-5-1.32-2.33-4-2.24-6.74-1.46a33.27,33.27,0,0,0-3.76,1.39c1.22-1.19,2.49-2.34,3.77-3.47,1.69-1.44,3.43-2.83,5.2-4.18a17.38,17.38,0,0,0,6.48,3.23c4.48,1.11,7.3-2.15,5.68-5-1.32-2.33-4-2.23-6.74-1.45-.63.18-1.27.4-1.89.63,2.34-1.67,4.72-3.3,7.1-4.93l2.2-1.5a17.51,17.51,0,0,0,6.82,3.5c4.49,1.11,7.3-2.15,5.68-5-1.32-2.34-4-2.24-6.74-1.46a29,29,0,0,0-3.13,1.12h0c.46-.32.91-.65,1.36-1,.84-.6,1.66-1.21,2.48-1.84,1-.76,2-1.61,3-2.41.56-.45,1.1-.93,1.64-1.42a17.1,17.1,0,0,0,6.85,3.54c4.49,1.11,7.31-2.14,5.69-5-1.32-2.33-4-2.24-6.75-1.46a37.59,37.59,0,0,0-4.41,1.67h0c1.83-1.7,3.6-3.47,5.28-5.32.12-.13.22-.26.33-.39.73-.8,1.44-1.61,2.13-2.44s1.57-2,2.33-3a57.57,57.57,0,0,0,7.53-13.17,56.57,56.57,0,0,1-7.79,13,82,82,0,0,1-10.4,11l-.41.35a38.76,38.76,0,0,0,2.3-4.65c1-2.52,1.2-5.05-1.21-6.41-3-1.66-6.56.82-5.6,5.1a15.83,15.83,0,0,0,3.55,6.78l-.89.76c-.35.29-.71.59-1.07.87-.59.48-1.19.94-1.79,1.39l-1,.74c-.86.63-1.74,1.26-2.62,1.87L193,175l-1.44,1a36.5,36.5,0,0,0,2.21-4.47c1-2.52,1.2-5.05-1.21-6.41-3-1.67-6.56.82-5.61,5.1a15.75,15.75,0,0,0,3.4,6.59l-1.07.69-4,2.58-.77.51c-.74.48-1.47,1-2.2,1.47-.32.21-.64.42-.95.64-1,.7-2.05,1.41-3.06,2.14a38.41,38.41,0,0,0,2.25-4.54c1-2.52,1.2-5.06-1.21-6.41-3-1.67-6.56.82-5.61,5.09a15.74,15.74,0,0,0,3.47,6.68c-1.72,1.26-3.42,2.56-5.08,3.91-1.2,1-2.39,2.06-3.55,3.12a27.27,27.27,0,0,0,1.35-2.89c1-2.52,1.2-5-1.21-6.41-3-1.66-6.56.82-5.61,5.1a15.74,15.74,0,0,0,3.21,6.37,71.21,71.21,0,0,0-8.83,10.67,26.28,26.28,0,0,0,.67-3.36c.33-2.68-.06-5.2-2.72-5.93-3.28-.9-6.17,2.38-4.21,6.3a15.7,15.7,0,0,0,4.7,5.44,74,74,0,0,0-6.36,13.14,25.19,25.19,0,0,0-.29-2.86c-.45-2.66-1.53-5-4.29-4.91-3.4.06-5.24,4-2.25,7.23a15.49,15.49,0,0,0,5.7,3.76,94.89,94.89,0,0,0-2.82,10.81c-.11.58-.21,1.16-.31,1.74a2.9,2.9,0,0,0-.36.34c-.12-.5-.26-1-.42-1.49-.86-2.56-2.28-4.67-5-4.19-3.35.59-4.55,4.79-1.11,7.49a15.26,15.26,0,0,0,5.93,2.77,1.78,1.78,0,0,0,.12.29c-.37,2.75-.65,5.51-.82,8.29q-.19,3.1-.25,6.23c-2.9,0-5,3.17-2.94,6.62a14.56,14.56,0,0,0,3.18,3.77c.25,3.9.63,7.8,1.15,11.67a3.2,3.2,0,0,0-3.1-.71c-1.83.49-2.65,2-2.94,3.77a3.65,3.65,0,0,0-1,2.49c-1.36-2-2.64-4.09-3.88-6.19a17.21,17.21,0,0,0,4.62-5.4c2.18-4.07-.27-7.61-3.45-6.74-2.59.7-3.16,3.34-3.08,6.17a30.42,30.42,0,0,0,.3,3.2L131,272.84c-1.12-2-2.07-4-3.12-6.08-.27-.49-.5-1-.72-1.51a17.24,17.24,0,0,0,5.55-4.43c2.9-3.59,1.15-7.53-2.13-7.27-2.68.2-3.73,2.69-4.18,5.48a31.61,31.61,0,0,0-.33,3.68l-1-2.2a112.44,112.44,0,0,1-5-15.33,17.43,17.43,0,0,0,6.42-4c3.25-3.29,1.91-7.38-1.39-7.46-2.68-.06-4,2.31-4.71,5a36.9,36.9,0,0,0-.8,4.46c-.71-3-1.32-6-1.82-9.07-.35-1.89-.57-3.8-.81-5.71a17.21,17.21,0,0,0,7.16-3.21c3.65-2.83,2.84-7.06-.42-7.57-2.64-.41-4.24,1.77-5.32,4.39a42.75,42.75,0,0,0-1.58,5.09c-.21-2.22-.44-4.43-.54-6.65a101.91,101.91,0,0,1,.06-13.76,102.22,102.22,0,0,0-.48,13.78c0,2.12.18,4.23.31,6.35a33,33,0,0,0-2-4.19c-1.38-2.32-3.23-4.07-5.78-3-3.15,1.29-3.42,5.66.52,7.56a15.78,15.78,0,0,0,7.42,1.41c.18,1.89.34,3.78.62,5.65.4,3,.91,6,1.5,8.91a29.42,29.42,0,0,0-2.15-3.25c-1.68-2.12-3.73-3.62-6.13-2.25-3,1.69-2.66,6.05,1.5,7.42a15.65,15.65,0,0,0,7.29.49,114.32,114.32,0,0,0,4.55,15.55l.6,1.52c-.54-.69-1.12-1.4-1.73-2-1.88-1.94-4.07-3.22-6.32-1.62-2.77,2-2,6.29,2.23,7.24a15.66,15.66,0,0,0,7.15-.21c.21.52.42,1,.67,1.55,1,2.08,1.92,4.22,3,6.27.3.59.61,1.17.92,1.75-.53-.45-1.08-.89-1.65-1.29-2.2-1.56-4.6-2.41-6.51-.41-2.34,2.46-.82,6.56,3.56,6.69a15.55,15.55,0,0,0,6.55-1.35c1.25,2.27,2.55,4.51,3.94,6.71.52.84,1.06,1.67,1.6,2.5a26.54,26.54,0,0,0-2.51-2.07c-2.21-1.56-4.61-2.41-6.51-.41-2.35,2.46-.83,6.56,3.55,6.69a15.73,15.73,0,0,0,7.22-1.66c.72,1,1.47,2,2.25,3-1.63,1.89-1.1,5.1,2.21,6.52a14.89,14.89,0,0,0,5.11,1.12c.2.17.41.33.62.48l.11.08c.77,2.88,1.61,5.74,2.49,8.58H137.2v47.11h37.16V310.77H157.05c-1.49-5.09-2.74-9.52-3-9.64l-.52-.25a17,17,0,0,0,5.35-3c3.52-3,2.52-7.19-.75-7.54-2.67-.3-4.17,1.95-5.12,4.62a23,23,0,0,0-.7,2.32c-.19-.71-.38-1.42-.56-2.13-.54-2.1-1-4.22-1.5-6.33a17.18,17.18,0,0,0,5.79-3.19c3.52-3,2.52-7.18-.75-7.54-2.67-.29-4.16,2-5.12,4.62a24.59,24.59,0,0,0-.71,2.36c-.31-1.54-.6-3.08-.87-4.63-.2-1.16-.38-2.31-.55-3.46-.07-1.64-.09-3.29-.07-4.93,0-.91,0-1.81.08-2.72a16.85,16.85,0,0,0,6.15.79c4.62-.3,6.32-4.25,3.91-6.5-2-1.82-4.51-.92-6.87.64a33.07,33.07,0,0,0-3,2.34A73.62,73.62,0,0,1,150,255.12a62.09,62.09,0,0,1,1.94-6.54,17.24,17.24,0,0,0,6.6.92c4.61-.29,6.32-4.25,3.91-6.49-2-1.83-4.51-.92-6.87.64a29.5,29.5,0,0,0-2.42,1.83,48.16,48.16,0,0,1,3.1-6.07A44.33,44.33,0,0,1,165,228.94a17.33,17.33,0,0,0,6.13,3.63c4.4,1.44,7.45-1.6,6-4.58-1.14-2.42-3.84-2.53-6.62-2a31.65,31.65,0,0,0-3.11.86l.07,0a69.71,69.71,0,0,1,12.13-7.62,17.37,17.37,0,0,0,5.66,4.79c4.11,2.12,7.61-.38,6.7-3.55-.74-2.58-3.39-3.11-6.22-3a29.91,29.91,0,0,0-3.31.37c4.57-2.16,9.23-4.2,13.73-6.58h0l.1-.05a17.39,17.39,0,0,0,7,3.65c4.49,1.11,7.31-2.15,5.68-5-1.31-2.34-4-2.24-6.74-1.46-.76.21-1.51.49-2.25.77a102.68,102.68,0,0,0,8.72-5.69l.24.25a.37.37,0,0,1,0-.11,17.49,17.49,0,0,0,7,3.7c4.49,1.1,7.31-2.15,5.69-5C220.38,200,217.68,200,215,200.82Zm-70.85,91.81c-.91-1.07-1.79-2.19-2.64-3.32.21-.19.43-.4.65-.62a15.65,15.65,0,0,0,3.9.7l0,.21.62-.12c.32,1.59.66,3.19,1,4.78A4.19,4.19,0,0,0,144.11,292.63Zm3.31-38.14c-.31,1.19-.58,2.39-.83,3.59l-.15-.21q0-3.7.11-7.39c.07-1.73.2-3.45.35-5.16a16.51,16.51,0,0,0,2.73,2.27A66.71,66.71,0,0,0,147.42,254.49Zm4.16-11.35c0-.45.1-.91.13-1.35,0-.23,0-.46,0-.68.36-.11.73-.24,1.1-.39C152.39,241.52,152,242.32,151.58,243.14Zm5.27-8.57a3.25,3.25,0,0,0-1.85-1.74c-2.5-1-4.53.82-6.14,3.14l-.08.12-.16-.05-.52-.07c0-.14.05-.28.07-.42a91.53,91.53,0,0,1,2.59-10.82,17.37,17.37,0,0,0,6.94-.54,5.93,5.93,0,0,0,3.4-2.35,15.94,15.94,0,0,0,2.5,5.68A47.91,47.91,0,0,0,156.85,234.57Z" transform="translate(-44.53 -92.04)"/></g><g id="Device"><path class="cls-6" d="M191.12,125.22H368.9a8,8,0,0,1,8,8V257.95a0,0,0,0,1,0,0H183.15a0,0,0,0,1,0,0V133.19A8,8,0,0,1,191.12,125.22Z"/><polygon class="cls-1" points="405.93 316.63 154.1 316.63 183.15 257.95 376.87 257.95 405.93 316.63"/><rect class="cls-7" x="194.89" y="135.73" width="170.25" height="111.71"/><polygon class="cls-8" points="271.93 276.52 272.27 269.37 262.03 269.37 261.35 276.52 271.93 276.52"/><polygon class="cls-8" points="293.08 276.52 292.74 269.37 282.5 269.37 282.51 276.52 293.08 276.52"/><polygon class="cls-8" points="348.18 284.17 359.12 284.17 356.55 276.52 345.97 276.52 348.18 284.17"/><polygon class="cls-8" points="261.35 276.52 262.03 269.37 251.79 269.37 250.77 276.52 261.35 276.52"/><polygon class="cls-8" points="240.2 276.52 241.56 269.37 231.32 269.37 229.62 276.52 240.2 276.52"/><polygon class="cls-8" points="335.4 276.52 333.68 269.37 323.44 269.37 324.82 276.52 335.4 276.52"/><polygon class="cls-8" points="345.97 276.52 343.91 269.37 333.68 269.37 335.4 276.52 345.97 276.52"/><polygon class="cls-8" points="229.62 276.52 231.32 269.37 221.09 269.37 219.04 276.52 229.62 276.52"/><polygon class="cls-8" points="303.66 276.52 302.97 269.37 292.74 269.37 293.08 276.52 303.66 276.52"/><polygon class="cls-8" points="356.55 276.52 354.15 269.37 343.91 269.37 345.97 276.52 356.55 276.52"/><polygon class="cls-8" points="324.82 276.52 323.44 269.37 313.21 269.37 314.24 276.52 324.82 276.52"/><polygon class="cls-8" points="314.24 276.52 313.21 269.37 302.97 269.37 303.66 276.52 314.24 276.52"/><polygon class="cls-8" points="282.51 276.52 282.5 269.37 272.27 269.37 271.93 276.52 282.51 276.52"/><polygon class="cls-8" points="208.46 276.52 197.89 276.52 194.97 284.17 205.91 284.17 208.46 276.52"/><polygon class="cls-8" points="210.85 269.37 200.62 269.37 197.89 276.52 208.46 276.52 210.85 269.37"/><polygon class="cls-8" points="219.04 276.52 221.09 269.37 210.85 269.37 208.46 276.52 219.04 276.52"/><polygon class="cls-8" points="191.84 292.36 188.47 301.16 200.23 301.16 203.17 292.36 191.84 292.36"/><polygon class="cls-8" points="205.91 284.17 194.97 284.17 191.84 292.36 203.17 292.36 205.91 284.17"/><polygon class="cls-8" points="203.17 292.36 200.23 301.16 211.99 301.16 214.51 292.36 203.17 292.36"/><polygon class="cls-8" points="250.77 276.52 251.79 269.37 241.56 269.37 240.2 276.52 250.77 276.52"/><polygon class="cls-8" points="249.68 284.17 250.77 276.52 240.2 276.52 238.74 284.17 249.68 284.17"/><polygon class="cls-8" points="238.74 284.17 240.2 276.52 229.62 276.52 227.8 284.17 238.74 284.17"/><polygon class="cls-8" points="260.63 284.17 261.35 276.52 250.77 276.52 249.68 284.17 260.63 284.17"/><polygon class="cls-8" points="219.04 276.52 208.46 276.52 205.91 284.17 216.85 284.17 219.04 276.52"/><polygon class="cls-8" points="350.54 292.36 361.87 292.36 359.12 284.17 348.18 284.17 350.54 292.36"/><polygon class="cls-8" points="227.8 284.17 229.62 276.52 219.04 276.52 216.85 284.17 227.8 284.17"/><polygon class="cls-8" points="205.91 284.17 203.17 292.36 214.51 292.36 216.85 284.17 205.91 284.17"/><polygon class="cls-8" points="326.29 284.17 324.82 276.52 314.24 276.52 315.35 284.17 326.29 284.17"/><polygon class="cls-8" points="315.35 284.17 314.24 276.52 303.66 276.52 304.4 284.17 315.35 284.17"/><polygon class="cls-8" points="348.18 284.17 345.97 276.52 335.4 276.52 337.23 284.17 348.18 284.17"/><polygon class="cls-8" points="282.51 284.17 282.51 276.52 271.93 276.52 271.57 284.17 282.51 284.17"/><polygon class="cls-8" points="304.4 284.17 303.66 276.52 293.08 276.52 293.46 284.17 304.4 284.17"/><polygon class="cls-8" points="293.46 284.17 293.08 276.52 282.51 276.52 282.51 284.17 293.46 284.17"/><polygon class="cls-8" points="271.57 284.17 271.93 276.52 261.35 276.52 260.63 284.17 271.57 284.17"/><polygon class="cls-8" points="304.4 284.17 305.19 292.36 316.53 292.36 315.35 284.17 304.4 284.17"/><polygon class="cls-8" points="315.35 284.17 316.53 292.36 327.87 292.36 326.29 284.17 315.35 284.17"/><polygon class="cls-8" points="216.85 284.17 214.51 292.36 225.84 292.36 227.8 284.17 216.85 284.17"/><polygon class="cls-8" points="326.29 284.17 327.87 292.36 339.2 292.36 337.23 284.17 326.29 284.17"/><polygon class="cls-8" points="282.51 284.17 282.52 292.36 293.86 292.36 293.46 284.17 282.51 284.17"/><polygon class="cls-8" points="337.23 284.17 339.2 292.36 350.54 292.36 348.18 284.17 337.23 284.17"/><polygon class="cls-8" points="293.46 284.17 293.86 292.36 305.19 292.36 304.4 284.17 293.46 284.17"/><polygon class="cls-8" points="238.74 284.17 237.18 292.36 248.51 292.36 249.68 284.17 238.74 284.17"/><polygon class="cls-8" points="227.8 284.17 225.84 292.36 237.18 292.36 238.74 284.17 227.8 284.17"/><polygon class="cls-8" points="271.57 284.17 271.19 292.36 282.52 292.36 282.51 284.17 271.57 284.17"/><polygon class="cls-8" points="260.63 284.17 259.85 292.36 271.19 292.36 271.57 284.17 260.63 284.17"/><polygon class="cls-8" points="249.68 284.17 248.51 292.36 259.85 292.36 260.63 284.17 249.68 284.17"/><polygon class="cls-8" points="337.23 284.17 335.4 276.52 324.82 276.52 326.29 284.17 337.23 284.17"/><polygon class="cls-8" points="210.85 269.37 213.3 262.06 203.41 262.06 200.62 269.37 210.85 269.37"/><polygon class="cls-8" points="200.62 269.37 191.17 269.37 188.12 276.52 197.89 276.52 200.62 269.37"/><polygon class="cls-8" points="203.41 262.06 194.29 262.06 191.17 269.37 200.62 269.37 203.41 262.06"/><polygon class="cls-8" points="197.89 276.52 188.12 276.52 184.86 284.17 194.97 284.17 197.89 276.52"/><polygon class="cls-8" points="194.97 284.17 184.86 284.17 181.37 292.36 191.84 292.36 194.97 284.17"/><polygon class="cls-8" points="191.84 292.36 181.37 292.36 177.62 301.16 188.47 301.16 191.84 292.36"/><polygon class="cls-8" points="367.13 276.52 370.06 284.17 379.75 284.17 376.49 276.52 367.13 276.52"/><polygon class="cls-8" points="373.21 292.36 383.24 292.36 379.75 284.17 370.06 284.17 373.21 292.36"/><polygon class="cls-8" points="376.59 301.16 386.99 301.16 383.24 292.36 373.21 292.36 376.59 301.16"/><polygon class="cls-8" points="292.74 269.37 292.38 262.06 282.49 262.06 282.5 269.37 292.74 269.37"/><polygon class="cls-8" points="367.13 276.52 376.49 276.52 373.44 269.37 364.38 269.37 367.13 276.52"/><polygon class="cls-8" points="361.87 292.36 373.21 292.36 370.06 284.17 359.12 284.17 361.87 292.36"/><polygon class="cls-8" points="221.09 269.37 223.18 262.06 213.3 262.06 210.85 269.37 221.09 269.37"/><polygon class="cls-8" points="354.15 269.37 356.55 276.52 367.13 276.52 364.38 269.37 354.15 269.37"/><polygon class="cls-8" points="373.44 269.37 370.32 262.06 361.58 262.06 364.38 269.37 373.44 269.37"/><polygon class="cls-8" points="364.38 269.37 361.58 262.06 351.69 262.06 354.15 269.37 364.38 269.37"/><polygon class="cls-8" points="327.87 292.36 329.56 301.16 341.32 301.16 339.2 292.36 327.87 292.36"/><polygon class="cls-8" points="364.83 301.16 376.59 301.16 373.21 292.36 361.87 292.36 364.83 301.16"/><polygon class="cls-8" points="354.15 269.37 351.69 262.06 341.81 262.06 343.91 269.37 354.15 269.37"/><polygon class="cls-8" points="350.54 292.36 353.07 301.16 364.83 301.16 361.87 292.36 350.54 292.36"/><polygon class="cls-8" points="339.2 292.36 341.32 301.16 353.07 301.16 350.54 292.36 339.2 292.36"/><polygon class="cls-8" points="359.12 284.17 370.06 284.17 367.13 276.52 356.55 276.52 359.12 284.17"/><polygon class="cls-8" points="262.03 269.37 262.72 262.06 252.84 262.06 251.79 269.37 262.03 269.37"/><polygon class="cls-8" points="343.91 269.37 341.81 262.06 331.92 262.06 333.68 269.37 343.91 269.37"/><polygon class="cls-8" points="251.79 269.37 252.84 262.06 242.95 262.06 241.56 269.37 251.79 269.37"/><polygon class="cls-8" points="282.5 269.37 282.49 262.06 272.61 262.06 272.27 269.37 282.5 269.37"/><polygon class="cls-8" points="241.56 269.37 242.95 262.06 233.07 262.06 231.32 269.37 241.56 269.37"/><polygon class="cls-8" points="231.32 269.37 233.07 262.06 223.18 262.06 221.09 269.37 231.32 269.37"/><polygon class="cls-8" points="272.27 269.37 272.61 262.06 262.72 262.06 262.03 269.37 272.27 269.37"/><polygon class="cls-8" points="333.68 269.37 331.92 262.06 322.04 262.06 323.44 269.37 333.68 269.37"/><polygon class="cls-8" points="323.44 269.37 322.04 262.06 312.15 262.06 313.21 269.37 323.44 269.37"/><polygon class="cls-8" points="302.97 269.37 302.26 262.06 292.38 262.06 292.74 269.37 302.97 269.37"/><polygon class="cls-8" points="327.87 292.36 316.53 292.36 305.19 292.36 293.86 292.36 282.52 292.36 271.19 292.36 259.85 292.36 248.51 292.36 237.18 292.36 225.84 292.36 214.51 292.36 211.99 301.16 223.74 301.16 235.5 301.16 247.26 301.16 259.02 301.16 270.77 301.16 282.53 301.16 294.29 301.16 306.05 301.16 317.8 301.16 329.56 301.16 327.87 292.36"/><polygon class="cls-8" points="313.21 269.37 312.15 262.06 302.26 262.06 302.97 269.37 313.21 269.37"/><rect class="cls-6" x="154.1" y="316.63" width="251.94" height="3.57"/></g><g id="Spreadsheets"><polygon class="cls-5" points="347.37 161.21 347.37 257.3 319.44 293.71 314.75 295.47 171.47 316.61 171.47 321.31 118.98 324.13 118.98 272.57 208.46 272.57 208.46 160.75 347.37 161.21"/><path class="cls-1" d="M131.34,354.3c-6.45.32-13.44,5.24-13.44,5.24L45,416.17H163.52s74.83-56.47,77.07-58.09c3.55-2.56,10.59-3.86,10.59-3.86l-3.33.08Z" transform="translate(-44.53 -92.04)"/><line class="cls-9" x1="359.47" y1="161.3" x2="200.86" y2="161.3"/><path class="cls-4" d="M380.08,219.16A11.82,11.82,0,0,0,368.25,231V376.41a12,12,0,0,1-16,11.29l-89.73-31.87a26,26,0,0,0-14.66-.82V231a11.83,11.83,0,0,1,11.83-11.83Z" transform="translate(-44.53 -92.04)"/><g class="cls-10"><path class="cls-2" d="M273.54,359.75l78.7,27.95a12,12,0,0,0,16-11.29V359.75Z" transform="translate(-44.53 -92.04)"/><path class="cls-11" d="M273.54,359.75l78.7,27.95a12,12,0,0,0,16-11.29V359.75Z" transform="translate(-44.53 -92.04)"/><path class="cls-2" d="M273.54,378.9l78.7,28a12,12,0,0,0,16-11.3V378.9Z" transform="translate(-44.53 -92.04)"/></g><path class="cls-9" d="M380.08,219.16A11.82,11.82,0,0,0,368.25,231V376.41a12,12,0,0,1-16,11.29l-89.73-31.87a26,26,0,0,0-14.66-.82V231a11.83,11.83,0,0,1,11.83-11.83Z" transform="translate(-44.53 -92.04)"/><line class="cls-1" x1="208.42" y1="262.26" x2="203.31" y2="262.26"/><path class="cls-4" d="M356.27,388.41H235.87a11.92,11.92,0,0,1-4-.71l-20.79-7.31,25.85-19.9a26.17,26.17,0,0,1,25.6-4.66l89.73,31.87A11.94,11.94,0,0,0,356.27,388.41Z" transform="translate(-44.53 -92.04)"/><g class="cls-12"><path class="cls-2" d="M356.27,388.41H235.87a11.92,11.92,0,0,1-4-.71L209.79,380l27.12-19.51a26.17,26.17,0,0,1,25.6-4.66l89.73,31.87A11.94,11.94,0,0,0,356.27,388.41Z" transform="translate(-44.53 -92.04)"/><path class="cls-13" d="M356.27,388.41H235.87a11.92,11.92,0,0,1-4-.71L209.79,380l27.12-19.51a26.17,26.17,0,0,1,25.6-4.66l89.73,31.87A11.94,11.94,0,0,0,356.27,388.41Z" transform="translate(-44.53 -92.04)"/></g><path class="cls-9" d="M356.27,388.41H235.87a11.92,11.92,0,0,1-4-.71l-20.79-7.31,25.85-19.9a26.17,26.17,0,0,1,25.6-4.66l89.73,31.87A11.94,11.94,0,0,0,356.27,388.41Z" transform="translate(-44.53 -92.04)"/><line class="cls-1" x1="191.34" y1="296.37" x2="191.08" y2="296.37"/><line class="cls-1" x1="311.97" y1="296.37" x2="311.74" y2="296.37"/><path class="cls-4" d="M388.44,222.63a11.74,11.74,0,0,0-8.36-3.47c-12.32,0-11.83,11.83-11.83,11.83v22.26h23.66V231A11.76,11.76,0,0,0,388.44,222.63Z" transform="translate(-44.53 -92.04)"/><g class="cls-14"><path class="cls-2" d="M388.44,222.63a11.74,11.74,0,0,0-8.36-3.47c-12.32,0-11.83,11.83-11.83,11.83v22.26h23.66V231A11.76,11.76,0,0,0,388.44,222.63Z" transform="translate(-44.53 -92.04)"/><path class="cls-13" d="M388.44,222.63a11.74,11.74,0,0,0-8.36-3.47c-12.32,0-11.83,11.83-11.83,11.83v22.26h23.66V231A11.76,11.76,0,0,0,388.44,222.63Z" transform="translate(-44.53 -92.04)"/></g><path class="cls-9" d="M388.44,222.63a11.74,11.74,0,0,0-8.36-3.47c-12.32,0-11.83,11.83-11.83,11.83v22.26h23.66V231A11.76,11.76,0,0,0,388.44,222.63Z" transform="translate(-44.53 -92.04)"/><g class="cls-15"><polygon points="214.37 147.5 214.37 147.71 214.37 152.76 214.37 152.97 214.37 158.02 214.37 158.23 214.37 163.27 214.37 163.48 214.37 168.53 214.37 168.74 214.37 173.79 214.37 174 214.37 179.04 214.37 179.25 214.37 184.3 214.37 184.51 214.37 189.56 214.37 189.77 214.37 194.81 214.37 195.02 214.37 200.07 214.37 200.28 214.37 205.54 225.8 205.54 225.8 200.28 225.8 200.07 225.8 195.02 225.8 194.81 225.8 189.77 225.8 189.56 225.8 184.51 225.8 184.3 225.8 179.25 225.8 179.04 225.8 174 225.8 173.79 225.8 168.74 225.8 168.53 225.8 163.48 225.8 163.27 225.8 158.23 225.8 158.02 225.8 152.97 225.8 152.76 225.8 147.71 225.8 147.5 225.8 142.25 214.37 142.25 214.37 147.5"/><polygon points="304.49 142.25 304.24 142.25 293.31 142.25 293.06 142.25 282.12 142.25 281.87 142.25 270.94 142.25 270.69 142.25 259.75 142.25 259.5 142.25 248.56 142.25 248.32 142.25 237.38 142.25 237.13 142.25 225.94 142.25 225.94 147.71 237.13 147.71 237.38 147.71 248.32 147.71 248.56 147.71 259.5 147.71 259.75 147.71 270.69 147.71 270.94 147.71 281.87 147.71 282.12 147.71 293.06 147.71 293.31 147.71 304.24 147.71 304.49 147.71 315.68 147.71 315.68 142.25 304.49 142.25"/></g><rect class="cls-16" x="214.37" y="142.25" width="11.43" height="5.47"/><rect class="cls-16" x="214.37" y="147.5" width="11.43" height="5.47"/><rect class="cls-16" x="214.37" y="152.76" width="11.43" height="5.47"/><rect class="cls-16" x="214.37" y="158.02" width="11.43" height="5.47"/><rect class="cls-16" x="214.37" y="163.27" width="11.43" height="5.47"/><rect class="cls-16" x="214.37" y="168.53" width="11.43" height="5.47"/><rect class="cls-16" x="214.37" y="173.79" width="11.43" height="5.47"/><rect class="cls-16" x="214.37" y="179.04" width="11.43" height="5.47"/><rect class="cls-16" x="214.37" y="184.3" width="11.43" height="5.47"/><rect class="cls-16" x="214.37" y="189.56" width="11.43" height="5.47"/><rect class="cls-16" x="214.37" y="194.81" width="11.43" height="5.47"/><rect class="cls-16" x="214.37" y="200.07" width="11.43" height="5.47"/><rect class="cls-16" x="225.94" y="142.25" width="11.43" height="5.47"/><rect class="cls-16" x="237.13" y="142.25" width="11.43" height="5.47"/><rect class="cls-16" x="248.32" y="142.25" width="11.43" height="5.47"/><rect class="cls-16" x="259.5" y="142.25" width="11.43" height="5.47"/><rect class="cls-16" x="270.69" y="142.25" width="11.43" height="5.47"/><rect class="cls-16" x="281.87" y="142.25" width="11.43" height="5.47"/><rect class="cls-16" x="293.06" y="142.25" width="11.43" height="5.47"/><rect class="cls-16" x="304.24" y="142.25" width="11.43" height="5.47"/><rect class="cls-16" x="225.8" y="147.71" width="89.87" height="57.82"/><line class="cls-16" x1="237.23" y1="147.71" x2="237.23" y2="205.52"/><line class="cls-16" x1="248.42" y1="147.71" x2="248.42" y2="205.52"/><line class="cls-16" x1="259.61" y1="147.71" x2="259.61" y2="205.52"/><line class="cls-16" x1="270.79" y1="147.71" x2="270.79" y2="205.52"/><line class="cls-16" x1="281.98" y1="147.71" x2="281.98" y2="205.52"/><line class="cls-16" x1="293.17" y1="147.71" x2="293.17" y2="205.52"/><line class="cls-16" x1="304.36" y1="147.71" x2="304.36" y2="205.52"/><line class="cls-16" x1="225.8" y1="152.97" x2="315.61" y2="152.97"/><line class="cls-16" x1="225.8" y1="158.21" x2="315.61" y2="158.21"/><line class="cls-16" x1="225.8" y1="163.45" x2="315.61" y2="163.45"/><line class="cls-16" x1="225.8" y1="168.69" x2="315.61" y2="168.69"/><line class="cls-16" x1="225.8" y1="173.93" x2="315.61" y2="173.93"/><line class="cls-16" x1="225.8" y1="179.16" x2="315.61" y2="179.16"/><line class="cls-16" x1="225.8" y1="184.4" x2="315.61" y2="184.4"/><line class="cls-16" x1="225.8" y1="189.64" x2="315.61" y2="189.64"/><line class="cls-16" x1="225.8" y1="194.88" x2="315.61" y2="194.88"/><line class="cls-16" x1="225.8" y1="200.12" x2="315.61" y2="200.12"/><polygon class="cls-2" points="168.51 276.35 72.16 276.35 78.81 271.29 175.16 271.29 168.51 276.35"/><polygon class="cls-2" points="21.17 316.88 18.8 316.88 78.81 271.29 81.18 271.29 21.17 316.88"/><polygon class="cls-17" points="147.28 292.44 50.93 292.44 58.46 286.8 154.81 286.8 147.28 292.44"/><polygon class="cls-16" points="114.85 317.11 18.5 317.11 78.81 271.29 175.16 271.29 114.85 317.11"/><line class="cls-16" x1="88.74" y1="271.46" x2="28.69" y2="317.08"/><line class="cls-16" x1="98.42" y1="271.46" x2="38.36" y2="317.08"/><line class="cls-16" x1="108.09" y1="271.46" x2="48.04" y2="317.08"/><line class="cls-16" x1="117.77" y1="271.46" x2="57.72" y2="317.08"/><line class="cls-16" x1="127.45" y1="271.46" x2="67.39" y2="317.08"/><line class="cls-16" x1="137.12" y1="271.46" x2="77.07" y2="317.08"/><line class="cls-16" x1="146.8" y1="271.46" x2="86.75" y2="317.08"/><line class="cls-16" x1="156.48" y1="271.46" x2="96.42" y2="317.08"/><line class="cls-16" x1="166.15" y1="271.46" x2="106.1" y2="317.08"/><line class="cls-16" x1="66.26" y1="280.95" x2="162.32" y2="280.95"/><line class="cls-16" x1="58.59" y1="286.78" x2="154.65" y2="286.78"/><line class="cls-16" x1="50.92" y1="292.61" x2="146.98" y2="292.61"/><line class="cls-16" x1="43.24" y1="298.43" x2="139.31" y2="298.43"/><line class="cls-16" x1="35.57" y1="304.26" x2="131.63" y2="304.26"/><line class="cls-16" x1="27.9" y1="310.09" x2="123.96" y2="310.09"/><rect class="cls-2" x="214.28" y="209.95" width="101.55" height="3.73"/><rect class="cls-2" x="214.28" y="209.95" width="2.49" height="48.04"/><rect class="cls-16" x="214.28" y="209.95" width="101.55" height="48.29"/><line class="cls-16" x1="224.98" y1="210.13" x2="224.98" y2="258.21"/><line class="cls-16" x1="235.18" y1="210.13" x2="235.18" y2="258.21"/><line class="cls-16" x1="245.38" y1="210.13" x2="245.38" y2="258.21"/><line class="cls-16" x1="255.58" y1="210.13" x2="255.58" y2="258.21"/><line class="cls-16" x1="265.78" y1="210.13" x2="265.78" y2="258.21"/><line class="cls-16" x1="275.97" y1="210.13" x2="275.97" y2="258.21"/><line class="cls-16" x1="286.17" y1="210.13" x2="286.17" y2="258.21"/><line class="cls-16" x1="296.37" y1="210.13" x2="296.37" y2="258.21"/><line class="cls-16" x1="306.57" y1="210.13" x2="306.57" y2="258.21"/><line class="cls-16" x1="214.45" y1="220.13" x2="315.7" y2="220.13"/><line class="cls-16" x1="214.45" y1="226.28" x2="315.7" y2="226.28"/><line class="cls-16" x1="214.45" y1="232.42" x2="315.7" y2="232.42"/><line class="cls-16" x1="214.45" y1="238.56" x2="315.7" y2="238.56"/><line class="cls-16" x1="214.45" y1="244.7" x2="315.7" y2="244.7"/><line class="cls-16" x1="214.45" y1="250.84" x2="315.7" y2="250.84"/><rect class="cls-18" x="277.98" y="240.77" width="4.23" height="9.88"/><rect class="cls-19" x="284.76" y="234.85" width="4.23" height="15.81"/><rect class="cls-18" x="291.53" y="224.97" width="4.23" height="25.69"/><rect class="cls-19" x="298.3" y="234.56" width="4.23" height="16.09"/><rect class="cls-18" x="305.08" y="224.97" width="4.23" height="25.69"/><path class="cls-19" d="M283.19,330.82v11.74a11.74,11.74,0,0,1,0-23.48h0Z" transform="translate(-44.53 -92.04)"/><path class="cls-20" d="M283.19,330.82l11.16-3.63A11.73,11.73,0,0,1,286.82,342a11.21,11.21,0,0,1-3.63.58Z" transform="translate(-44.53 -92.04)"/><path class="cls-18" d="M283.19,330.82V319.08a11.55,11.55,0,0,1,11.16,8.11Z" transform="translate(-44.53 -92.04)"/></g></svg>